<svg xmlns="http://www.w3.org/2000/svg" viewBox="0 0 32 32" fill="none">
  <!-- Background circle -->
  <circle cx="16" cy="16" r="16" fill="#0844A9"/>
  
  <!-- Cleaning spray bottle -->
  <g fill="white">
    <!-- Bottle body -->
    <rect x="12" y="14" width="6" height="12" rx="1" fill="white"/>
    <!-- Bottle neck -->
    <rect x="14" y="11" width="2" height="3" fill="white"/>
    <!-- Trigger -->
    <path d="M11 12 L13 12 L13 14 L10 14 C9.5 14 9 13.5 9 13 C9 12.5 9.5 12 10 12 Z" fill="white"/>
    <!-- Nozzle -->
    <rect x="8" y="12.5" width="2" height="1" fill="white"/>
    
    <!-- Spray droplets -->
    <circle cx="7" cy="10" r="0.8" fill="white" opacity="0.8"/>
    <circle cx="5" cy="11" r="0.6" fill="white" opacity="0.6"/>
    <circle cx="6" cy="8" r="0.5" fill="white" opacity="0.7"/>
    <circle cx="4" cy="9" r="0.4" fill="white" opacity="0.5"/>
    
    <!-- Sparkle/clean symbol -->
    <path d="M22 8 L23 10 L25 9 L24 11 L26 12 L24 13 L25 15 L23 14 L22 16 L21 14 L19 15 L20 13 L18 12 L20 11 L19 9 L21 10 Z" fill="white" opacity="0.9"/>
  </g>
</svg>